<svg width="31" height="30" viewBox="0 0 31 30" fill="none" xmlns="http://www.w3.org/2000/svg">
<path d="M30.4923 15.2391L29.5248 24.1489C29.2773 26.4543 24.7323 26.1371 24.9798 23.8714L25.7298 16.9327L22.6473 17.063C23.4048 18.2355 23.8323 19.5496 23.8323 20.943C23.8323 23.2766 22.6248 25.4007 20.6599 26.9754L17.7124 24.7493C22.0548 21.1412 18.6949 15.2788 12.1624 15.2788C10.2199 15.2788 8.44994 15.8395 7.12245 16.7514L4.17497 14.5254C5.82496 13.3529 7.93245 12.5373 10.2799 12.2484L15.9274 7.39414L12.7324 5.98941L8.86244 8.59496C6.61246 10.113 3.56748 7.54708 5.82496 6.0234L10.9249 2.58521C11.6599 2.08676 12.7324 2.00746 13.5874 2.3813C13.5874 2.3813 24.0348 6.96366 24.0498 6.97499C25.2648 7.54708 25.6023 9.01411 24.5073 9.95437L20.1274 13.7211L28.0848 13.3869C29.4723 13.3246 30.6048 14.2025 30.4923 15.2391ZM25.6248 6.51619C27.7323 6.51619 29.4423 5.22474 29.4423 3.63309C29.4423 2.04144 27.7323 0.75 25.6248 0.75C23.5173 0.75 21.8073 2.04144 21.8073 3.63309C21.8073 5.22474 23.5173 6.51619 25.6248 6.51619ZM12.1699 26.6072C6.12496 26.6072 2.61498 21.4754 5.96746 17.7653L2.98998 15.5166C1.42999 17.0063 0.5 18.8925 0.5 20.9373C0.5 28.3405 11.8024 32.3451 19.3549 27.876L16.3774 25.6273C15.1774 26.2447 13.7299 26.6072 12.1699 26.6072Z" fill="black"/>
</svg>
