<svg width="30" height="30" viewBox="0 0 30 30" fill="none" xmlns="http://www.w3.org/2000/svg">
<path d="M29.9923 14.7391L29.0248 23.6489C28.7773 25.9543 24.2323 25.6371 24.4798 23.3714L25.2298 16.4327L22.1473 16.563C22.9048 17.7355 23.3323 19.0496 23.3323 20.443C23.3323 22.7766 22.1248 24.9007 20.1599 26.4754L17.2124 24.2493C21.5548 20.6412 18.1949 14.7788 11.6624 14.7788C9.71993 14.7788 7.94994 15.3395 6.62245 16.2514L3.67497 14.0254C5.32496 12.8529 7.43245 12.0373 9.77993 11.7484L15.4274 6.89414L12.2324 5.48941L8.36244 8.09496C6.11246 9.61297 3.06748 7.04708 5.32496 5.5234L10.4249 2.08521C11.1599 1.58676 12.2324 1.50746 13.0874 1.8813C13.0874 1.8813 23.5348 6.46366 23.5498 6.47499C24.7648 7.04708 25.1023 8.51411 24.0073 9.45437L19.6274 13.2211L27.5848 12.8869C28.9723 12.8246 30.1048 13.7025 29.9923 14.7391ZM25.1248 6.01619C27.2323 6.01619 28.9423 4.72474 28.9423 3.13309C28.9423 1.54144 27.2323 0.25 25.1248 0.25C23.0173 0.25 21.3073 1.54144 21.3073 3.13309C21.3073 4.72474 23.0173 6.01619 25.1248 6.01619ZM11.6699 26.1072C5.62496 26.1072 2.11498 20.9754 5.46746 17.2653L2.48998 15.0166C0.929993 16.5063 0 18.3925 0 20.4373C0 27.8405 11.3024 31.8451 18.8549 27.376L15.8774 25.1273C14.6774 25.7447 13.2299 26.1072 11.6699 26.1072Z" fill="black"/>
</svg>
