<svg width="30" height="29" viewBox="0 0 30 29" fill="none" xmlns="http://www.w3.org/2000/svg">
<path d="M29.9923 14.4891L29.0248 23.3989C28.7773 25.7043 24.2323 25.3871 24.4798 23.1214L25.2298 16.1827L22.1473 16.313C22.9048 17.4855 23.3323 18.7996 23.3323 20.193C23.3323 22.5266 22.1248 24.6507 20.1599 26.2254L17.2124 23.9993C21.5548 20.3912 18.1949 14.5288 11.6624 14.5288C9.71993 14.5288 7.94994 15.0895 6.62245 16.0014L3.67497 13.7754C5.32496 12.6029 7.43245 11.7873 9.77993 11.4984L15.4274 6.64414L12.2324 5.23941L8.36244 7.84496C6.11246 9.36297 3.06748 6.79708 5.32496 5.2734L10.4249 1.83521C11.1599 1.33676 12.2324 1.25746 13.0874 1.6313C13.0874 1.6313 23.5348 6.21366 23.5498 6.22499C24.7648 6.79708 25.1023 8.26411 24.0073 9.20437L19.6274 12.9711L27.5848 12.6369C28.9723 12.5746 30.1048 13.4525 29.9923 14.4891ZM25.1248 5.76619C27.2323 5.76619 28.9423 4.47474 28.9423 2.88309C28.9423 1.29144 27.2323 0 25.1248 0C23.0173 0 21.3073 1.29144 21.3073 2.88309C21.3073 4.47474 23.0173 5.76619 25.1248 5.76619ZM11.6699 25.8572C5.62496 25.8572 2.11498 20.7254 5.46746 17.0153L2.48998 14.7666C0.929993 16.2563 0 18.1425 0 20.1873C0 27.5905 11.3024 31.5951 18.8549 27.126L15.8774 24.8773C14.6774 25.4947 13.2299 25.8572 11.6699 25.8572Z" fill="black"/>
</svg>
