<svg width="30" height="30" viewBox="0 0 30 30" fill="none" xmlns="http://www.w3.org/2000/svg">
<path d="M29.9923 14.9891L29.0248 23.8989C28.7773 26.2043 24.2323 25.8871 24.4798 23.6214L25.2298 16.6827L22.1473 16.813C22.9048 17.9855 23.3323 19.2996 23.3323 20.693C23.3323 23.0266 22.1248 25.1507 20.1599 26.7254L17.2124 24.4993C21.5548 20.8912 18.1949 15.0288 11.6624 15.0288C9.71993 15.0288 7.94994 15.5895 6.62245 16.5014L3.67497 14.2754C5.32496 13.1029 7.43245 12.2873 9.77993 11.9984L15.4274 7.14414L12.2324 5.73941L8.36244 8.34496C6.11246 9.86297 3.06748 7.29708 5.32496 5.7734L10.4249 2.33521C11.1599 1.83676 12.2324 1.75746 13.0874 2.1313C13.0874 2.1313 23.5348 6.71366 23.5498 6.72499C24.7648 7.29708 25.1023 8.76411 24.0073 9.70437L19.6274 13.4711L27.5848 13.1369C28.9723 13.0746 30.1048 13.9525 29.9923 14.9891ZM25.1248 6.26619C27.2323 6.26619 28.9423 4.97474 28.9423 3.38309C28.9423 1.79144 27.2323 0.5 25.1248 0.5C23.0173 0.5 21.3073 1.79144 21.3073 3.38309C21.3073 4.97474 23.0173 6.26619 25.1248 6.26619ZM11.6699 26.3572C5.62496 26.3572 2.11498 21.2254 5.46746 17.5153L2.48998 15.2666C0.929993 16.7563 0 18.6425 0 20.6873C0 28.0905 11.3024 32.0951 18.8549 27.626L15.8774 25.3773C14.6774 25.9947 13.2299 26.3572 11.6699 26.3572Z" fill="black"/>
</svg>
