<svg width="31" height="30" viewBox="0 0 31 30" fill="none" xmlns="http://www.w3.org/2000/svg">
<path d="M30.4923 14.9891L29.5248 23.8989C29.2773 26.2043 24.7323 25.8871 24.9798 23.6214L25.7298 16.6827L22.6473 16.813C23.4048 17.9855 23.8323 19.2996 23.8323 20.693C23.8323 23.0266 22.6248 25.1507 20.6599 26.7254L17.7124 24.4993C22.0548 20.8912 18.6949 15.0288 12.1624 15.0288C10.2199 15.0288 8.44994 15.5895 7.12245 16.5014L4.17497 14.2754C5.82496 13.1029 7.93245 12.2873 10.2799 11.9984L15.9274 7.14414L12.7324 5.73941L8.86244 8.34496C6.61246 9.86297 3.56748 7.29708 5.82496 5.7734L10.9249 2.33521C11.6599 1.83676 12.7324 1.75746 13.5874 2.1313C13.5874 2.1313 24.0348 6.71366 24.0498 6.72499C25.2648 7.29708 25.6023 8.76411 24.5073 9.70437L20.1274 13.4711L28.0848 13.1369C29.4723 13.0746 30.6048 13.9525 30.4923 14.9891ZM25.6248 6.26619C27.7323 6.26619 29.4423 4.97474 29.4423 3.38309C29.4423 1.79144 27.7323 0.5 25.6248 0.5C23.5173 0.5 21.8073 1.79144 21.8073 3.38309C21.8073 4.97474 23.5173 6.26619 25.6248 6.26619ZM12.1699 26.3572C6.12496 26.3572 2.61498 21.2254 5.96746 17.5153L2.98998 15.2666C1.42999 16.7563 0.5 18.6425 0.5 20.6873C0.5 28.0905 11.8024 32.0951 19.3549 27.626L16.3774 25.3773C15.1774 25.9947 13.7299 26.3572 12.1699 26.3572Z" fill="black"/>
</svg>
